# xmcd
#
# Track frame offsets:
#	150
#	22385
#	48665
#	71227
#	92635
#	108320
#	114472
#	129547
#
# Disc length: 2019
#
# Revision: 1
# Processed by: cddbd v1.5.1PL0 Copyright (c) Steve Scherf et al.
# Submitted via: CDex 1.51
# Normalized: r0:DSETVAR1,TDELIM( - )
#
DISCID=7407e108
DTITLE=Various Artist - this is acid jazz [CD1)
DYEAR=1999
DGENRE=Jazz
TTITLE0=Guru - No Time To Play
TTITLE1=Us3 - Come on Everybody
TTITLE2=Bob Belden - Kiss
TTITLE3=Helen Eriksen - What Is This Thing Called Love
TTITLE4=Corduroy - You Got Me
TTITLE5=Charlie Hunter - Bongo Confront
TTITLE6=Medeski, Martin and Wood - Sugar Craft
TTITLE7=Junko Onishi - Alligator Boogie (Alligator Bonogaloo)
EXTD=YEAR: 1999
EXTT0=
EXTT1=
EXTT2=
EXTT3=
EXTT4=
EXTT5=
EXTT6=
EXTT7=
PLAYORDER=
